# xmcd
#
# Track frame offsets: 
#        150
#        23776
#        44804
#        71676
#        85814
#        111140
#        131255
#        169795
#        194340
#        211251
#        238645
#        254302
#        286740
#
# Disc length: 4073 seconds
#
# Revision: 0
# Processed by: cddbd v1.5.2PL0 Copyright (c) Steve Scherf et al.
# Submitted via: ExactAudioCopy v1.3
#
DISCID=b50fe70d
DTITLE=Chad Wesley - Bluezy
DYEAR=2018
DGENRE=Blues Rock
TTITLE0=Guitar Man
TTITLE1=Life
TTITLE2=Dope
TTITLE3=Edge
TTITLE4=Thunder
TTITLE5=Shake
TTITLE6=Bad News
TTITLE7=Desperate Eyes
TTITLE8=Talk
TTITLE9=October Wind
TTITLE10=Papier-Mache
TTITLE11=Reign
TTITLE12=Dear Brandi
EXTD=
EXTT0=
EXTT1=
EXTT2=
EXTT3=
EXTT4=
EXTT5=
EXTT6=
EXTT7=
EXTT8=
EXTT9=
EXTT10=
EXTT11=
EXTT12=
PLAYORDER=
